<?xml version="1.0" standalone="no"?>
<!DOCTYPE svg PUBLIC "-//W3C//DTD SVG 20010904//EN"
 "http://www.w3.org/TR/2001/REC-SVG-20010904/DTD/svg10.dtd">
<svg version="1.0" xmlns="http://www.w3.org/2000/svg"
 width="1280.000000pt" height="780.000000pt" viewBox="0 0 1280.000000 780.000000"
 preserveAspectRatio="xMidYMid meet">
<metadata>
Created by potrace 1.15, written by Peter Selinger 2001-2017
</metadata>
<g transform="translate(0.000000,780.000000) scale(0.100000,-0.100000)"
fill="#000000" stroke="none">
<path d="M8515 7700 c-357 -54 -985 -148 -1395 -209 -410 -61 -1125 -167
-1590 -236 -465 -69 -1070 -159 -1345 -200 -537 -79 -2367 -351 -3490 -518
-673 -101 -690 -104 -689 -125 0 -12 1 -53 2 -90 l2 -68 75 -53 75 -52 0
-2064 0 -2064 147 -103 c82 -57 153 -107 158 -110 6 -3 105 13 220 36 l210 42
3 1871 2 1872 815 -572 814 -572 1 -2120 0 -2120 176 -123 175 -123 222 41
c122 22 225 40 230 40 4 0 7 958 7 2129 l0 2129 28 6 c15 3 268 42 562 86 294
45 697 105 895 135 198 30 572 86 830 125 259 39 706 106 995 150 1643 248
2060 310 2079 310 l21 0 0 -962 0 -963 145 -103 c80 -57 152 -105 159 -108 8
-3 102 11 209 30 108 20 198 36 201 36 3 0 6 491 6 1090 0 864 3 1092 13 1095
17 6 2341 355 2364 355 17 0 18 -72 18 -2002 l0 -2003 150 -107 c83 -59 159
-110 170 -113 11 -2 110 12 220 33 l200 38 3 2136 2 2136 85 13 85 12 0 92 c0
57 4 95 12 103 6 6 10 13 7 16 -20 18 -3602 1826 -3616 1825 -10 -1 -310 -46
-668 -99z"/>
</g>
</svg>
